{
    "asset" : {
        "generator" : "Khronos glTF Blender I/O v1.8.19",
        "version" : "2.0"
    },
    "scene" : 0,
    "scenes" : [
        {
            "name" : "Scene",
            "nodes" : [
                7
            ]
        }
    ],
    "nodes" : [
        {
            "mesh" : 0,
            "name" : "shoes_belt"
        },
        {
            "mesh" : 1,
            "name" : "shoes_belt_back"
        },
        {
            "mesh" : 2,
            "name" : "shoes_body_0"
        },
        {
            "mesh" : 3,
            "name" : "shoes_body_1"
        },
        {
            "mesh" : 4,
            "name" : "shoes_body_2"
        },
        {
            "mesh" : 5,
            "name" : "shoes_bottom"
        },
        {
            "mesh" : 6,
            "name" : "shoes_inner"
        },
        {
            "children" : [
                0,
                1,
                2,
                3,
                4,
                5,
                6
            ],
            "name" : "Shoes_mesh1"
        }
    ],
    "materials" : [
        {
            "doubleSided" : true,
            "name" : "lambert2",
            "pbrMetallicRoughness" : {
                "metallicFactor" : 0,
                "roughnessFactor" : 0.5527864098548889
            }
        }
    ],
    "meshes" : [
        {
            "name" : "Mesh.005",
            "primitives" : [
                {
                    "attributes" : {
                        "POSITION" : 0,
                        "NORMAL" : 1,
                        "TEXCOORD_0" : 2
                    },
                    "indices" : 3,
                    "material" : 0
                }
            ]
        },
        {
            "name" : "Mesh.004",
            "primitives" : [
                {
                    "attributes" : {
                        "POSITION" : 4,
                        "NORMAL" : 5,
                        "TEXCOORD_0" : 6
                    },
                    "indices" : 7,
                    "material" : 0
                }
            ]
        },
        {
            "name" : "Mesh",
            "primitives" : [
                {
                    "attributes" : {
                        "POSITION" : 8,
                        "NORMAL" : 9,
                        "TEXCOORD_0" : 10
                    },
                    "indices" : 11,
                    "material" : 0
                }
            ]
        },
        {
            "name" : "Mesh.001",
            "primitives" : [
                {
                    "attributes" : {
                        "POSITION" : 12,
                        "NORMAL" : 13,
                        "TEXCOORD_0" : 14
                    },
                    "indices" : 15,
                    "material" : 0
                }
            ]
        },
        {
            "name" : "Mesh.002",
            "primitives" : [
                {
                    "attributes" : {
                        "POSITION" : 16,
                        "NORMAL" : 17,
                        "TEXCOORD_0" : 18
                    },
                    "indices" : 19,
                    "material" : 0
                }
            ]
        },
        {
            "name" : "Mesh.006",
            "primitives" : [
                {
                    "attributes" : {
                        "POSITION" : 20,
                        "NORMAL" : 21,
                        "TEXCOORD_0" : 22
                    },
                    "indices" : 23,
                    "material" : 0
                }
            ]
        },
        {
            "name" : "Mesh.003",
            "primitives" : [
                {
                    "attributes" : {
                        "POSITION" : 24,
                        "NORMAL" : 25,
                        "TEXCOORD_0" : 26
                    },
                    "indices" : 27,
                    "material" : 0
                }
            ]
        }
    ],
    "accessors" : [
        {
            "bufferView" : 0,
            "componentType" : 5126,
            "count" : 4354,
            "max" : [
                0.9029136896133423,
                3.7961630821228027,
                0.7252085208892822
            ],
            "min" : [
                -0.902913510799408,
                0.8754029273986816,
                -1.4018136262893677
            ],
            "type" : "VEC3"
        },
        {
            "bufferView" : 1,
            "componentType" : 5126,
            "count" : 4354,
            "type" : "VEC3"
        },
        {
            "bufferView" : 2,
            "componentType" : 5126,
            "count" : 4354,
            "type" : "VEC2"
        },
        {
            "bufferView" : 3,
            "componentType" : 5123,
            "count" : 22512,
            "type" : "SCALAR"
        },
        {
            "bufferView" : 4,
            "componentType" : 5126,
            "count" : 164,
            "max" : [
                0.7132707238197327,
                3.7823774814605713,
                -1.0413202047348022
            ],
            "min" : [
                -0.7132706642150879,
                3.3218908309936523,
                -1.697919249534607
            ],
            "type" : "VEC3"
        },
        {
            "bufferView" : 5,
            "componentType" : 5126,
            "count" : 164,
            "type" : "VEC3"
        },
        {
            "bufferView" : 6,
            "componentType" : 5126,
            "count" : 164,
            "type" : "VEC2"
        },
        {
            "bufferView" : 7,
            "componentType" : 5123,
            "count" : 336,
            "type" : "SCALAR"
        },
        {
            "bufferView" : 8,
            "componentType" : 5126,
            "count" : 1844,
            "max" : [
                0.8641228079795837,
                4.31416654586792,
                1.480278730392456
            ],
            "min" : [
                -0.8641228675842285,
                0.42585769295692444,
                -1.9160773754119873
            ],
            "type" : "VEC3"
        },
        {
            "bufferView" : 9,
            "componentType" : 5126,
            "count" : 1844,
            "type" : "VEC3"
        },
        {
            "bufferView" : 10,
            "componentType" : 5126,
            "count" : 1844,
            "type" : "VEC2"
        },
        {
            "bufferView" : 11,
            "componentType" : 5123,
            "count" : 9984,
            "type" : "SCALAR"
        },
        {
            "bufferView" : 12,
            "componentType" : 5126,
            "count" : 546,
            "max" : [
                0.8929709792137146,
                2.5971391201019287,
                1.3497673273086548
            ],
            "min" : [
                -0.8929710388183594,
                0.4776220917701721,
                -1.9320166110992432
            ],
            "type" : "VEC3"
        },
        {
            "bufferView" : 13,
            "componentType" : 5126,
            "count" : 546,
            "type" : "VEC3"
        },
        {
            "bufferView" : 14,
            "componentType" : 5126,
            "count" : 546,
            "type" : "VEC2"
        },
        {
            "bufferView" : 15,
            "componentType" : 5123,
            "count" : 2880,
            "type" : "SCALAR"
        },
        {
            "bufferView" : 16,
            "componentType" : 5126,
            "count" : 874,
            "max" : [
                0.8769611716270447,
                1.0733925104141235,
                1.5084822177886963
            ],
            "min" : [
                -0.8769611716270447,
                0.40166184306144714,
                -1.9715819358825684
            ],
            "type" : "VEC3"
        },
        {
            "bufferView" : 17,
            "componentType" : 5126,
            "count" : 874,
            "type" : "VEC3"
        },
        {
            "bufferView" : 18,
            "componentType" : 5126,
            "count" : 874,
            "type" : "VEC2"
        },
        {
            "bufferView" : 19,
            "componentType" : 5123,
            "count" : 4752,
            "type" : "SCALAR"
        },
        {
            "bufferView" : 20,
            "componentType" : 5126,
            "count" : 1680,
            "max" : [
                0.8582879304885864,
                0.5508882999420166,
                1.289663314819336
            ],
            "min" : [
                -0.8582879900932312,
                0.2540026009082794,
                -1.9571659564971924
            ],
            "type" : "VEC3"
        },
        {
            "bufferView" : 21,
            "componentType" : 5126,
            "count" : 1680,
            "type" : "VEC3"
        },
        {
            "bufferView" : 22,
            "componentType" : 5126,
            "count" : 1680,
            "type" : "VEC2"
        },
        {
            "bufferView" : 23,
            "componentType" : 5123,
            "count" : 8832,
            "type" : "SCALAR"
        },
        {
            "bufferView" : 24,
            "componentType" : 5126,
            "count" : 572,
            "max" : [
                0.8692740201950073,
                3.9926183223724365,
                1.4614940881729126
            ],
            "min" : [
                -0.8466492295265198,
                0.6600891947746277,
                -0.9831955432891846
            ],
            "type" : "VEC3"
        },
        {
            "bufferView" : 25,
            "componentType" : 5126,
            "count" : 572,
            "type" : "VEC3"
        },
        {
            "bufferView" : 26,
            "componentType" : 5126,
            "count" : 572,
            "type" : "VEC2"
        },
        {
            "bufferView" : 27,
            "componentType" : 5123,
            "count" : 3072,
            "type" : "SCALAR"
        }
    ],
    "bufferViews" : [
        {
            "buffer" : 0,
            "byteLength" : 52248,
            "byteOffset" : 0
        },
        {
            "buffer" : 0,
            "byteLength" : 52248,
            "byteOffset" : 52248
        },
        {
            "buffer" : 0,
            "byteLength" : 34832,
            "byteOffset" : 104496
        },
        {
            "buffer" : 0,
            "byteLength" : 45024,
            "byteOffset" : 139328
        },
        {
            "buffer" : 0,
            "byteLength" : 1968,
            "byteOffset" : 184352
        },
        {
            "buffer" : 0,
            "byteLength" : 1968,
            "byteOffset" : 186320
        },
        {
            "buffer" : 0,
            "byteLength" : 1312,
            "byteOffset" : 188288
        },
        {
            "buffer" : 0,
            "byteLength" : 672,
            "byteOffset" : 189600
        },
        {
            "buffer" : 0,
            "byteLength" : 22128,
            "byteOffset" : 190272
        },
        {
            "buffer" : 0,
            "byteLength" : 22128,
            "byteOffset" : 212400
        },
        {
            "buffer" : 0,
            "byteLength" : 14752,
            "byteOffset" : 234528
        },
        {
            "buffer" : 0,
            "byteLength" : 19968,
            "byteOffset" : 249280
        },
        {
            "buffer" : 0,
            "byteLength" : 6552,
            "byteOffset" : 269248
        },
        {
            "buffer" : 0,
            "byteLength" : 6552,
            "byteOffset" : 275800
        },
        {
            "buffer" : 0,
            "byteLength" : 4368,
            "byteOffset" : 282352
        },
        {
            "buffer" : 0,
            "byteLength" : 5760,
            "byteOffset" : 286720
        },
        {
            "buffer" : 0,
            "byteLength" : 10488,
            "byteOffset" : 292480
        },
        {
            "buffer" : 0,
            "byteLength" : 10488,
            "byteOffset" : 302968
        },
        {
            "buffer" : 0,
            "byteLength" : 6992,
            "byteOffset" : 313456
        },
        {
            "buffer" : 0,
            "byteLength" : 9504,
            "byteOffset" : 320448
        },
        {
            "buffer" : 0,
            "byteLength" : 20160,
            "byteOffset" : 329952
        },
        {
            "buffer" : 0,
            "byteLength" : 20160,
            "byteOffset" : 350112
        },
        {
            "buffer" : 0,
            "byteLength" : 13440,
            "byteOffset" : 370272
        },
        {
            "buffer" : 0,
            "byteLength" : 17664,
            "byteOffset" : 383712
        },
        {
            "buffer" : 0,
            "byteLength" : 6864,
            "byteOffset" : 401376
        },
        {
            "buffer" : 0,
            "byteLength" : 6864,
            "byteOffset" : 408240
        },
        {
            "buffer" : 0,
            "byteLength" : 4576,
            "byteOffset" : 415104
        },
        {
            "buffer" : 0,
            "byteLength" : 6144,
            "byteOffset" : 419680
        }
    ],
    "buffers" : [
        {
            "byteLength" : 425824,
            "uri" : "data:application/octet-stream;base64,"
        }
    ]
}
